<?xml version="1.0" encoding="UTF-8" standalone="no"?>
<svg
   xmlns:dc="http://purl.org/dc/elements/1.1/"
   xmlns:cc="http://creativecommons.org/ns#"
   xmlns:rdf="http://www.w3.org/1999/02/22-rdf-syntax-ns#"
   xmlns:svg="http://www.w3.org/2000/svg"
   xmlns="http://www.w3.org/2000/svg"
   xmlns:sodipodi="http://sodipodi.sourceforge.net/DTD/sodipodi-0.dtd"
   xmlns:inkscape="http://www.inkscape.org/namespaces/inkscape"
   height="423pt"
   viewBox="0 -12 423.24895 423"
   width="423pt"
   version="1.1"
   id="svg20"
   sodipodi:docname="animal.svg"
   inkscape:version="0.92.4 (unknown)">
  <metadata
     id="metadata26">
    <rdf:RDF>
      <cc:Work
         rdf:about="">
        <dc:format>image/svg+xml</dc:format>
        <dc:type
           rdf:resource="http://purl.org/dc/dcmitype/StillImage" />
      </cc:Work>
    </rdf:RDF>
  </metadata>
  <defs
     id="defs24" />
  <sodipodi:namedview
     pagecolor="#ffffff"
     bordercolor="#666666"
     borderopacity="1"
     objecttolerance="10"
     gridtolerance="10"
     guidetolerance="10"
     inkscape:pageopacity="0"
     inkscape:pageshadow="2"
     inkscape:window-width="1366"
     inkscape:window-height="715"
     id="namedview22"
     showgrid="false"
     inkscape:zoom="0.53659876"
     inkscape:cx="-125.38686"
     inkscape:cy="126.43188"
     inkscape:window-x="0"
     inkscape:window-y="27"
     inkscape:window-maximized="1"
     inkscape:current-layer="svg20" />
  <path
     d="m420.976562 255.65625-1.390624-1.246094c-24.496094-21.925781-55.289063-34.003906-86.71875-34.003906h-11.570313c-.386719-2.417969-.835937-4.816406-1.480469-7.164062 18.273438-18.347657 28.339844-42.6875 28.339844-68.585938v-6.886719c0-.152343-.074219-.28125-.085938-.433593 7.21875-9.363282 11.5625-21.054688 11.5625-33.765626 0-30.59375-24.886718-55.480468-55.476562-55.480468-1.453125 0-2.871094.101562-4.292969.214844-3.546875.285156-6.28125 3.246093-6.28125 6.804687v35.589844h-37.664062c-3.449219 0-6.355469 2.566406-6.773438 5.984375-.28125 2.261718-.46875 4.546875-.46875 6.886718 0 30.589844 24.886719 55.476563 55.480469 55.476563 11.089844 0 21.40625-3.304687 30.082031-8.933594-1.167969 18.210938-8.136719 35.265625-20.058593 49.054688-16.472657-31.464844-56.648438-53.777344-103.582032-53.777344-46.207031 0-85.933594 21.601563-102.871094 52.296875-11.140624-13.515625-17.589843-30.03125-18.714843-47.574219 8.675781 5.628907 18.996093 8.933594 30.085937 8.933594 30.589844 0 55.472656-24.886719 55.472656-55.476563 0-2.339843-.183593-4.625-.464843-6.886718-.417969-3.417969-3.324219-5.984375-6.773438-5.984375h-37.664062v-35.589844c0-3.558594-2.734375-6.519531-6.28125-6.804687-1.421875-.113282-2.839844-.214844-4.289063-.214844-30.59375 0-55.480468 24.886718-55.480468 55.480468 0 12.710938 4.34375 24.402344 11.5625 33.765626-.011719.152343-.089844.28125-.089844.433593v6.886719c0 25.152344 9.5625 48.785156 26.847656 66.9375-.875 2.886719-1.5625 5.820312-2.039062 8.8125h-9.515626c-31.433593 0-62.226562 12.078125-86.71875 34.003906l-1.390624 1.246094c-2.808594 2.515625-3.046876 6.828125-.535157 9.640625 1.347657 1.507813 3.214844 2.273437 5.085938 2.273437 1.621093 0 3.246093-.574218 4.554687-1.742187l1.394532-1.246094c21.984374-19.683593 49.542968-30.527343 77.613281-30.527343h8.808593c.539063 11.324218 3.851563 22.96875 9.527344 34.136718h-3.964844c-32.933593 0-62.664062 17.585938-77.585937 45.902344l-7.671875 14.574219c-1.761719 3.335937-.472656 7.46875 2.859375 9.21875 1.015625.535156 2.097656.789062 3.171875.789062 2.457031 0 4.828125-1.328125 6.046875-3.648437l7.671875-14.570313c12.554688-23.8125 37.652344-38.613281 65.507812-38.613281h12.21875c6.386719 8.976562 14.285157 17.292969 23.417969 24.46875l-3.429687 1.945312c-21.320313 12.105469-34.566406 34.847657-34.566406 59.359376v16.628906c0 3.773437 3.050781 6.824218 6.824218 6.824218 3.773438 0 6.828125-3.050781 6.828125-6.824218v-16.628906c0-19.605469 10.59375-37.796876 27.644531-47.476563l9.253907-5.253906c16.71875 10.007812 36.335937 16.304687 57.648437 16.304687 21.734375 0 41.707032-6.546875 58.636719-16.90625l10.316406 5.855469c17.054688 9.675781 27.644531 27.871094 27.644531 47.476563v16.628906c0 3.773437 3.054688 6.824218 6.828126 6.824218 3.773437 0 6.828124-3.050781 6.828124-6.824218v-16.628906c0-24.511719-13.25-47.253907-34.566406-59.359376l-4.589844-2.601562c8.796876-7.042969 16.390626-15.179688 22.582032-23.902344.164062.011719.300781.09375.464844.09375h13.75c27.851562 0 52.949218 14.800782 65.503906 38.613282l7.675781 14.570312c1.21875 2.320312 3.589844 3.648438 6.046875 3.648438 1.070312 0 2.160156-.253907 3.171875-.785157 3.332031-1.753906 4.621094-5.886719 2.859375-9.21875l-7.671875-14.574219c-14.921875-28.320312-44.65625-45.90625-77.585937-45.90625h-6.019532c5.679688-11.167968 8.988282-22.8125 9.53125-34.132812h10.859375c28.066407 0 55.628907 10.839844 77.613281 30.527344l1.394532 1.246094c1.308594 1.164062 2.933594 1.738281 4.554687 1.738281 1.871094 0 3.738281-.765625 5.085938-2.273438 2.511719-2.816406 2.269531-7.128906-.535157-9.644531zm-116.820312-110.265625c-22.796875 0-41.398438-18.339844-41.820312-41.039063h38.074218c3.773438 0 6.828125-3.054687 6.828125-6.828124v-35.667969c21.625 1.582031 38.738281 19.6875 38.738281 41.714843 0 23.058594-18.761718 41.820313-41.820312 41.820313zm-188.144531-83.535156v35.667969c0 3.773437 3.054687 6.828124 6.828125 6.828124h38.070312c-.417968 22.699219-19.011718 41.039063-41.8125 41.039063-23.058594 0-41.824218-18.761719-41.824218-41.820313-.003907-22.027343 17.109374-40.125 38.738281-41.714843zm94.585937 255.683593c-54.269531 0-97.960937-47.449218-97.960937-86.726562 0-39.574219 43.945312-71.765625 97.960937-71.765625 54.011719 0 97.957032 32.191406 97.957032 71.765625.003906 39.277344-43.691407 86.726562-97.957032 86.726562zm0 0"
     id="path2"
     style="fill:#d6697f;fill-opacity:0.94117647" />
  <path
     d="m245.027344 208.355469c0 4.546875-3.6875 8.234375-8.234375 8.234375s-8.234375-3.6875-8.234375-8.234375c0-4.550781 3.6875-8.234375 8.234375-8.234375s8.234375 3.683594 8.234375 8.234375zm0 0"
     id="path4"
     style="fill:#666666;fill-opacity:1" />
  <path
     d="m192.632812 208.355469c0 4.546875-3.6875 8.234375-8.234374 8.234375-4.546876 0-8.234376-3.6875-8.234376-8.234375 0-4.550781 3.6875-8.234375 8.234376-8.234375 4.546874 0 8.234374 3.683594 8.234374 8.234375zm0 0"
     id="path6"
     style="fill:#666666;fill-opacity:1" />
  <path
     d="m40.957031 50.8125c11.886719 0 21.554688-9.667969 21.554688-21.554688 0-11.886718-9.667969-21.554687-21.554688-21.554687s-21.554687 9.667969-21.554687 21.554687c0 11.886719 9.667968 21.554688 21.554687 21.554688zm0-29.453125c4.355469 0 7.898438 3.546875 7.898438 7.898437 0 4.355469-3.542969 7.902344-7.898438 7.902344-4.351562 0-7.898437-3.546875-7.898437-7.902344 0-4.351562 3.546875-7.898437 7.898437-7.898437zm0 0"
     id="path8"
     style="fill:#666666;fill-opacity:1" />
  <path
     d="m375.464844 355.863281c-11.886719 0-21.554688 9.667969-21.554688 21.554688s9.667969 21.554687 21.554688 21.554687c11.886718 0 21.550781-9.667968 21.550781-21.554687s-9.664063-21.554688-21.550781-21.554688zm0 29.453125c-4.355469 0-7.902344-3.542968-7.902344-7.898437s3.546875-7.898438 7.902344-7.898438c4.351562 0 7.898437 3.542969 7.898437 7.898438s-3.546875 7.898437-7.898437 7.898437zm0 0"
     id="path10"
     style="fill:#666666;fill-opacity:1" />
  <path
     d="m249.488281 49.738281c0 5.832031-4.726562 10.558594-10.558593 10.558594-5.832032 0-10.558594-4.726563-10.558594-10.558594s4.726562-10.558593 10.558594-10.558593c5.832031 0 10.558593 4.726562 10.558593 10.558593zm0 0"
     id="path12"
     style="fill:#666666;fill-opacity:1" />
  <path
     d="m420.15625 158.964844c0 5.832031-4.726562 10.558594-10.558594 10.558594-5.832031 0-10.558594-4.726563-10.558594-10.558594 0-5.832032 4.726563-10.558594 10.558594-10.558594 5.832032 0 10.558594 4.726562 10.558594 10.558594zm0 0"
     id="path14"
     style="fill:#666666;fill-opacity:1" />
  <path
     d="m37.863281 145.3125c0 5.832031-4.726562 10.558594-10.558593 10.558594-5.832032 0-10.558594-4.726563-10.558594-10.558594s4.726562-10.558594 10.558594-10.558594c5.832031 0 10.558593 4.726563 10.558593 10.558594zm0 0"
     id="path16"
     style="fill:#666666;fill-opacity:1" />
  <path
     d="m358.570312 35.910156c1.332032 1.332032 3.082032 2 4.828126 2 1.746093 0 3.492187-.667968 4.824218-2l7.242188-7.238281 7.238281 7.238281c1.332031 1.332032 3.082031 2 4.828125 2s3.492188-.667968 4.824219-2c2.667969-2.664062 2.667969-6.988281 0-9.652344l-7.238281-7.238281 7.238281-7.242187c2.667969-2.664063 2.667969-6.984375 0-9.652344-2.664063-2.664062-6.984375-2.664062-9.652344 0l-7.238281 7.238281-7.242188-7.238281c-2.664062-2.667969-6.984375-2.667969-9.652344 0-2.664062 2.664062-2.664062 6.984375 0 9.652344l7.242188 7.238281-7.242188 7.242187c-2.667968 2.664063-2.667968 6.988282 0 9.652344zm0 0"
     id="path18"
     style="fill:#666666;fill-opacity:1" />
</svg>
