<?xml version="1.0" encoding="UTF-8" standalone="no"?>
<svg
   xmlns:dc="http://purl.org/dc/elements/1.1/"
   xmlns:cc="http://creativecommons.org/ns#"
   xmlns:rdf="http://www.w3.org/1999/02/22-rdf-syntax-ns#"
   xmlns:svg="http://www.w3.org/2000/svg"
   xmlns="http://www.w3.org/2000/svg"
   xmlns:sodipodi="http://sodipodi.sourceforge.net/DTD/sodipodi-0.dtd"
   xmlns:inkscape="http://www.inkscape.org/namespaces/inkscape"
   height="496pt"
   viewBox="0 0 496.8 496"
   width="496pt"
   version="1.1"
   id="svg9"
   sodipodi:docname="beach.svg"
   inkscape:version="0.92.4 (unknown)">
  <metadata
     id="metadata15">
    <rdf:RDF>
      <cc:Work
         rdf:about="">
        <dc:format>image/svg+xml</dc:format>
        <dc:type
           rdf:resource="http://purl.org/dc/dcmitype/StillImage" />
      </cc:Work>
    </rdf:RDF>
  </metadata>
  <defs
     id="defs13" />
  <sodipodi:namedview
     pagecolor="#ffffff"
     bordercolor="#666666"
     borderopacity="1"
     objecttolerance="10"
     gridtolerance="10"
     guidetolerance="10"
     inkscape:pageopacity="0"
     inkscape:pageshadow="2"
     inkscape:window-width="1366"
     inkscape:window-height="715"
     id="namedview11"
     showgrid="false"
     inkscape:zoom="0.50466895"
     inkscape:cx="532.79394"
     inkscape:cy="184.55463"
     inkscape:window-x="0"
     inkscape:window-y="27"
     inkscape:window-maximized="1"
     inkscape:current-layer="g28" />
  <linearGradient
     id="linear0"
     gradientUnits="userSpaceOnUse"
     x1="248.3976"
     x2="248.3976"
     y1="496.4"
     y2=".4">
    <stop
       offset="0"
       stop-color="#9f2fff"
       id="stop2" />
    <stop
       offset="1"
       stop-color="#0bb1d3"
       id="stop4" />
  </linearGradient>
  <path
     d="m29.222656 145.441406c5.257813-10.511718 15.816406-17.042968 27.578125-17.042968 11.757813 0 22.320313 6.53125 27.574219 17.042968l7.480469 14.957032h17.886719l7.472656-14.957032c.992187-1.992187 2.234375-3.785156 3.578125-5.472656v148.429688h-87.992188c-17.648437 0-32 14.355468-32 32 0 16.898437 13.199219 30.632812 29.816407 31.777343l-29.160157 116.59375c-.441406 1.757813-.65625 3.566407-.65625 5.382813 0 12.261718 9.984375 22.246094 22.246094 22.246094h6.921875c9.960938 0 18.773438-6.695313 21.4375-16.292969l8.808594-31.707031h281.167968l8.808594 31.707031c2.664063 9.597656 11.480469 16.292969 21.441406 16.292969h6.917969c12.265625 0 22.25-9.984376 22.25-22.246094 0-1.816406-.214843-3.632813-.664062-5.398438l-29.097657-116.355468h1.007813c11.320313 0 21.90625-6.070313 27.625-15.839844l92.585937-158.230469c2.972657-5.082031 4.542969-10.871094 4.542969-16.753906 0-18.292969-14.878906-33.175781-33.746093-33.175781-11.582032 0-22.488282 6.167968-28.453126 16.105468l-38.328124 63.894532h-144.296876c-19.550781 0-37.953124 10.417968-48.023437 27.1875l-31.679687 52.8125h-3.472657v-148.421876c1.34375 1.6875 2.582031 3.480469 3.574219 5.472657l7.480469 14.949219h17.886719l7.472656-14.957032c5.265625-10.511718 15.824218-17.042968 27.585937-17.042968 11.757813 0 22.320313 6.53125 27.574219 17.042968l10.226562 20.460938 19-19-9.195312-39.101563c-14.878906-63.234375-70.644531-107.402343-135.605469-107.402343-64.960937 0-120.730469 44.167968-135.609375 107.402343l-9.191406 39.101563 19 19zm6.761719 330.390625c-.738281 2.6875-3.214844 4.566407-6.015625 4.566407h-6.921875c-3.4375 0-6.246094-2.796876-6.246094-6.246094 0-.511719.0625-1.03125.175781-1.511719l30.0625-120.242187h23.226563zm278.726563-123.433593 13.335937 48h-254.496094l13.335938-48zm-73.910157 64v16h-80v-16zm-171.695312 0h75.695312v16h-80.144531zm187.695312 16v-16h75.695313l4.449218 16zm127.816407 40.226562c.117187.496094.183593 1.015625.183593 1.527344 0 3.449218-2.808593 6.246094-6.25 6.246094h-6.917969c-2.800781 0-5.273437-1.878907-6.015624-4.574219l-34.289063-123.425781h23.222656zm63.703124-319.882812c3.085938-5.148438 8.734376-8.34375 15.304688-8.34375 9.472656 0 17.175781 7.707031 17.175781 17.175781 0 3.050781-.816406 6.050781-2.351562 8.671875l-22.320313 38.152344h-41.191406zm-230.648437 91.082031c7.199219-11.984375 20.335937-19.425781 34.304687-19.425781h194.785157l-9.363281 16h-180.039063c-8.039063 0-15.511719 4-19.96875 10.691406l-24.871094 37.308594h-21.582031zm149.800781 12.574219-14.535156 24.234374c-2.882812 4.792969-8.136719 7.765626-13.722656 7.765626h-107.472656l18.960937-28.4375c1.488281-2.226563 3.976563-3.5625 6.65625-3.5625zm-28.257812 48c11.175781 0 21.695312-5.949219 27.441406-15.535157l19.472656-32.464843h41.910156l-42.183593 72.082031c-2.855469 4.878906-8.144531 7.917969-13.808594 7.917969h-339.246094c-8.824219 0-16-7.175782-16-16 0-8.824219 7.175781-16 16-16zm-202.414063-16v-158.925782c2.566407-.679687 5.246094-1.074218 8-1.074218 2.75 0 5.429688.394531 8 1.074218v158.925782zm8-176c-16.234375 0-30.914062 8.265624-39.457031 21.761718 3.9375-66.40625 28.609375-101.746094 39.457031-114.25 10.847657 12.496094 35.519531 47.84375 39.457031 114.25-8.546874-13.496094-23.226562-21.761718-39.457031-21.761718zm120.03125-.933594 4.273438 18.144531c-8.777344-10.800781-21.953125-17.210937-36.304688-17.210937-12.753906 0-24.519531 5.128906-33.160156 13.839843-4.535156-55.839843-22.792969-90.359375-35.921875-108.335937 49.144531 7.523437 89.410156 43.851562 101.113281 93.5625zm-240.0625 0c11.703125-49.710938 51.964844-86.039063 101.109375-93.5625-13.136718 17.96875-31.382812 52.496094-35.917968 108.335937-8.640626-8.710937-20.410157-13.839843-33.160157-13.839843-14.351562 0-27.527343 6.410156-36.304687 17.210937zm0 0"
     id="path7"
     style="fill:#d66a7f;fill-opacity:0.94117647"
     fill="url(#linear0)" />
  <g
     transform="matrix(3.0510685,0,0,3.1171171,306.99412,1.0315781)"
     id="g28"
     style="fill:#666666;fill-opacity:1">
    <path
       inkscape:connector-curvature="0"
       d="M 49.649423,31.140059 H 19.401165 c -5.603808,0 -10.1632126,-4.250232 -10.1632126,-9.475856 0,-5.152063 4.4331926,-9.35816 9.9297206,-9.474383 1.956284,-6.330478 8.140666,-10.7013476 15.255862,-10.7013476 5.897252,0 11.207618,2.9806066 13.992166,7.8134246 0.440165,-0.0456 0.842466,-0.06768 1.232144,-0.06768 6.476247,0 11.747172,4.912263 11.747172,10.949975 0.0016,6.040655 -5.26777,10.955861 -11.745594,10.955865 z M 19.401165,13.659526 c -4.732946,0 -8.585564,3.591146 -8.585564,8.004677 0,4.413534 3.851041,8.003209 8.585564,8.003209 h 30.248258 c 5.606963,0 10.169522,-4.254648 10.169522,-9.483213 0,-5.227093 -4.562559,-9.478798 -10.169522,-9.478798 -0.471718,0 -0.968677,0.03826 -1.563451,0.122116 -0.339194,0.0456 -0.672078,-0.11476 -0.823532,-0.401632 C 44.826551,5.822571 39.905864,2.96113 34.423535,2.96113 c -6.600882,0 -12.31197,4.176673 -13.889618,10.157009 -0.08835,0.33543 -0.408612,0.542867 -0.785669,0.55905 z"
       id="path2"
       style="fill:#666666;fill-opacity:1;stroke:#666666;stroke-width:3.08772373;stroke-miterlimit:4;stroke-dasharray:none;stroke-opacity:1" />
    <path
       inkscape:connector-curvature="0"
       d="m 49.649423,31.140059 c -0.435431,0 -0.788825,-0.329544 -0.788825,-0.735589 0,-0.406045 0.353394,-0.735589 0.788825,-0.735589 5.606963,0 10.169522,-4.254645 10.169522,-9.483211 0,-5.227093 -4.562559,-9.478798 -10.169522,-9.478798 -2.939159,0 -5.731597,1.184298 -7.66264,3.248361 -0.287131,0.306005 -0.784092,0.336901 -1.11382,0.07062 -0.32815,-0.267753 -0.361282,-0.732647 -0.07574,-1.038653 2.230795,-2.384777 5.457085,-3.751502 8.852185,-3.751502 6.476248,0 11.747172,4.912264 11.747172,10.949976 0,6.039185 -5.269346,10.954389 -11.747172,10.954389 z"
       id="path4"
       style="fill:#666666;fill-opacity:1;stroke:#666666;stroke-width:1.52348328;stroke-opacity:1" />
  </g>
</svg>
